<?xml version="1.0" encoding="UTF-8"?>
<svg width="1024" height="1024" viewBox="0 0 1024 1024" xmlns="http://www.w3.org/2000/svg">
  <path id="5" d="M 445.500,607.839 C 432.850,601.242 404.725,586.620 383,575.345 C 361.275,564.070 342.635,554.003 341.578,552.973 C 339.686,551.129 339.758,550.871 346.257,536.300 C 360.013,505.461 375.998,469.887 383.463,453.500 C 387.722,444.150 396.731,424.125 403.483,409 C 410.235,393.875 418.236,376.257 421.264,369.848 C 421.264,369.848 426.769,358.195 426.769,358.195 C 426.769,358.195 449.094,336.131 449.094,336.131 C 467.197,318.239 471.819,314.167 473.539,314.599 C 476.786,315.414 515.932,305.149 534.500,298.613 C 538.350,297.258 551.850,291.230 564.500,285.219 C 577.150,279.208 591.922,272.211 597.326,269.672 C 605.251,265.948 607.052,264.711 606.632,263.277 C 606.346,262.299 603.812,252.500 601.001,241.500 C 596.458,223.722 591.690,205.439 590.412,200.901 C 590.073,199.696 592.245,198.304 599.231,195.249 C 617.358,187.321 680.777,159.756 698,152.320 C 722.398,141.786 736.540,135.639 750.500,129.501 C 763.570,123.754 767.575,122.505 768.440,123.904 C 768.750,124.405 767.384,128.569 765.405,133.157 C 754.091,159.389 693.671,309.077 661.529,390.500 C 652.844,412.500 639.686,445.350 632.288,463.500 C 619.405,495.106 617.023,501.132 616.430,503.620 C 616.158,504.762 609.146,510.421 532.951,571 C 509.085,589.975 485.495,608.762 480.529,612.748 C 475.563,616.734 470.825,619.959 470,619.914 C 469.175,619.869 458.150,614.436 445.500,607.839M 504.484,533.250 C 506.681,529.150 507.787,526.009 507.301,525.248 C 506.861,524.559 492.100,516.997 474.500,508.442 C 456.900,499.887 440.136,491.735 437.246,490.325 C 433.396,488.447 431.648,488.048 430.704,488.831 C 429.055,490.199 423.479,501.813 424.149,502.483 C 424.847,503.181 499.335,539.884 500.183,539.948 C 500.559,539.976 502.494,536.963 504.484,533.250M 528.447,485.257 C 530.416,481.548 531.829,477.997 531.587,477.366 C 530.994,475.820 456.014,438.873 454.885,439.571 C 453.273,440.567 447.913,452.330 448.442,453.709 C 448.862,454.803 521.836,491.611 524.183,491.912 C 524.559,491.960 526.478,488.966 528.447,485.257M 579.513,452.835 C 581.431,448.894 583,445.275 583,444.793 C 583,444.311 577.487,441.287 570.750,438.073 C 564.013,434.859 540.630,423.439 518.790,412.695 C 496.950,401.951 478.149,392.864 477.011,392.503 C 475.211,391.932 474.489,392.825 471.470,399.358 C 469.561,403.489 468,407.149 468,407.492 C 468,408.030 519.938,433.840 546.500,446.501 C 551.450,448.860 559.742,452.862 564.927,455.395 C 570.112,457.928 574.730,460 575.190,460 C 575.649,460 577.595,456.776 579.513,452.835M 608.521,398.959 C 610.471,395.086 611.777,391.449 611.423,390.876 C 611.069,390.303 608.917,389.017 606.640,388.018 C 604.363,387.019 589.900,380.031 574.500,372.489 C 537.942,354.585 512.158,342.101 511.237,341.858 C 510.385,341.634 503.079,354.885 503.032,356.741 C 502.995,358.194 510.153,361.856 562.488,387.154 C 583.931,397.520 602.263,406 603.225,406 C 604.390,406 606.160,403.647 608.521,398.959" stroke="#4AA9EB" fill="#4AA9EB" stroke-width="1"/>
  <path id="7" d="M 504.725,694.249 C 503.853,693.286 500.352,687.098 496.944,680.499 C 493.536,673.900 488.400,664.675 485.529,660 C 476.232,644.859 467.867,627.975 468.196,625.015 C 468.432,622.895 470.866,620.399 479.041,613.891 C 484.839,609.276 509.107,589.975 532.970,571 C 556.833,552.025 585.509,529.188 596.693,520.250 C 607.877,511.312 617.358,503.982 617.763,503.959 C 618.168,503.936 620.122,502.699 622.104,501.209 C 649.148,480.881 649.075,480.933 704.500,441.490 C 710.550,437.184 717.525,432.302 720,430.639 C 722.475,428.976 726.300,426.197 728.500,424.463 C 734.032,420.103 735.469,419.334 734.791,421.101 C 734.181,422.690 722.274,439.915 695.705,477.639 C 685.967,491.465 678,503.278 678,503.889 C 678,504.500 677.315,505 676.479,505 C 675.643,505 673.505,507.087 671.729,509.638 C 668.631,514.087 659.732,525.976 590.891,617.626 C 573.901,640.245 560,659.258 560,659.876 C 560,660.494 559.645,661 559.212,661 C 558.779,661 556.488,663.945 554.121,667.545 C 551.754,671.145 548.122,675.161 546.048,676.470 C 541.422,679.390 508.354,696 507.166,696 C 506.695,696 505.597,695.212 504.725,694.249" stroke="#0864A9" fill="#0864A9" stroke-width="1"/>
  <path id="10" d="M 319,542.366 C 311.910,540.803 278.850,534.567 253.500,530.011 C 229.216,525.647 220.769,523.943 217.737,522.794 C 213.998,521.377 213.271,517.907 215.847,513.781 C 216.973,511.977 240.532,487.946 268.198,460.380 C 311.191,417.543 319.154,410.037 323,408.724 C 325.475,407.879 340.100,402.400 355.500,396.548 C 388.461,384.023 400.933,379.599 401.548,380.214 C 401.921,380.587 395.065,396.566 385.766,417 C 384.640,419.475 381.361,426.900 378.481,433.500 C 374.139,443.449 359.688,476.133 333.713,534.750 C 329.120,545.115 329.821,544.752 319,542.366" stroke="#1683CF" fill="#1683CF" stroke-width="1"/>
  <path id="2" d="M 273.285,868.896 C 284.989,850.573 296.033,818.682 303.549,781.500 C 307.305,762.920 307.748,758 305.666,758 C 304.932,758 297.552,760.475 289.267,763.500 C 280.982,766.525 273.772,769 273.244,769 C 272.080,769 275.574,753.837 280.503,737.500 C 286.603,717.280 296.082,699.560 307.470,687.086 C 317.829,675.740 334.832,665.160 348.500,661.553 C 363.014,657.723 381.958,658.590 394.628,663.662 C 399.986,665.807 400.896,666.479 399.500,667.260 C 398.556,667.788 396.103,667.952 394.050,667.624 C 389.335,666.870 380.444,669.108 372,673.173 C 363.213,677.404 350.854,689.853 345.753,699.613 C 339.818,710.969 338.676,717.665 339.383,737 C 340.117,757.081 342.475,787.342 343.425,788.879 C 344.555,790.707 347.169,790.152 353,786.844 C 356.025,785.128 363.900,780.789 370.500,777.203 C 393.680,764.609 408.200,752.473 417.889,737.593 C 424.623,727.252 427.490,718.109 427.485,707 C 427.480,697.045 425.762,691.295 419.876,681.536 C 417.653,677.850 415.989,674.677 416.180,674.486 C 416.755,673.911 432.163,684.510 437.212,688.955 C 443.747,694.707 451.157,706.185 454.060,715.050 C 456.245,721.722 456.490,724.119 456.405,738 C 456.320,751.827 456.017,754.471 453.593,762.500 C 446.591,785.693 429.134,809.259 406.211,826.463 C 401.472,830.019 397.510,832.832 397.406,832.714 C 397.302,832.596 397.590,830.250 398.048,827.500 C 399.332,819.787 399.195,801.595 397.842,800.242 C 396.965,799.365 394.043,801.615 385.786,809.527 C 348.863,844.908 304.756,870.716 276.213,873.640 C 276.213,873.640 269.838,874.293 269.838,874.293 C 269.838,874.293 273.285,868.896 273.285,868.896" stroke="#FC7038" fill="#FC7038" stroke-width="1"/>
  <path id="9" d="M 632.500,772.122 C 630.603,770.939 625.467,763.866 618.526,752.876 C 612.490,743.319 600.606,724.925 592.117,712 C 573.061,682.985 568,675.115 568,674.500 C 568,673.783 574.909,663.964 580.822,656.277 C 585.833,649.762 597.423,634.406 615.749,610 C 647.790,567.328 657.791,554.188 669.406,539.500 C 672.450,535.650 676.417,530.150 678.221,527.278 C 680.025,524.406 681.970,522.044 682.545,522.028 C 683.161,522.011 685.955,538.311 689.353,561.750 C 692.522,583.612 695.996,607.064 697.073,613.865 C 699.328,628.106 699.605,626.491 691.197,648 C 687.864,656.525 678.393,681.050 670.150,702.500 C 644.657,768.837 644.015,770.411 641.701,772.228 C 638.848,774.468 636.214,774.437 632.500,772.122" stroke="#0D76C2" fill="#0D76C2" stroke-width="1"/>
  <path id="10" d="M 388.846,637.312 C 357.841,620.784 351.943,617.289 350.575,614.636 C 349.686,612.911 347.362,602.275 345.410,591 C 343.458,579.725 341.168,566.537 340.321,561.693 C 339.474,556.849 339.052,552.614 339.384,552.282 C 339.716,551.950 340.778,552.378 341.744,553.232 C 343.441,554.733 386.025,577.133 433.500,601.498 C 446.150,607.990 459.650,614.944 463.500,616.952 C 463.500,616.952 470.500,620.603 470.500,620.603 C 470.500,620.603 449.772,638.801 449.772,638.801 C 438.372,648.810 428.247,656.967 427.272,656.926 C 426.297,656.885 409.006,648.059 388.846,637.312" stroke="#1683CF" fill="#1683CF" stroke-width="1"/>
  <path id="3" d="M 343.425,788.879 C 342.475,787.342 340.117,757.081 339.383,737 C 338.895,723.660 339.091,719.181 340.407,713.613 C 342.632,704.196 348.036,694.342 355.362,686.342 C 366.689,673.972 379.176,667.986 394.635,667.516 C 402.490,667.277 403.501,667.485 409.154,670.505 C 414.434,673.326 415.799,674.705 419.586,681.033 C 425.798,691.414 427.480,696.942 427.485,707 C 427.490,718.109 424.623,727.252 417.889,737.593 C 408.200,752.473 393.680,764.609 370.500,777.203 C 363.900,780.789 356.025,785.128 353,786.844 C 347.169,790.152 344.555,790.707 343.425,788.879" stroke="#FEA143" fill="#FEA143" stroke-width="1"/>
  <path id="11" d="M 563.589,667.592 C 561.615,664.063 560,660.630 560,659.963 C 560,659.296 573.901,640.245 590.891,617.626 C 659.732,525.976 668.631,514.087 671.729,509.638 C 673.505,507.087 675.591,505 676.364,505 C 677.191,505 678.845,507.905 680.384,512.057 C 683.327,519.998 683.420,520.601 681.951,522.292 C 681.374,522.956 679.461,525.602 677.701,528.172 C 675.941,530.742 671.940,536.142 668.811,540.172 C 651.765,562.130 645.715,570.091 615.749,610 C 596.749,635.303 585.784,649.826 580.768,656.328 C 577.871,660.083 574.018,665.355 572.207,668.045 C 570.396,670.734 568.523,673.177 568.045,673.472 C 567.567,673.767 565.563,671.121 563.589,667.592" stroke="#1885D1" fill="#1885D1" stroke-width="1"/>
  <path id="6" d="M 488.735,690.678 C 450.498,670.922 425.308,657.008 427.769,657.003 C 428.467,657.002 437.692,649.390 448.269,640.089 C 448.269,640.089 467.500,623.178 467.500,623.178 C 467.500,623.178 468.259,626.707 468.259,626.707 C 469.102,630.627 477.579,646.945 485.555,660 C 488.411,664.675 493.535,673.900 496.941,680.500 C 500.347,687.100 504.082,693.513 504.160,697 C 502.201,697 496.250,694.561 488.735,690.678" stroke="#0D5B97" fill="#0D5B97" stroke-width="1"/>
  <path id="11" d="M 472.610,314.178 C 471.861,312.967 583.285,202 585.250,202 C 586.985,202 580.809,215.099 552.482,271.500 C 540.675,295.009 540.336,295.545 535.964,297.709 C 531.104,300.114 507.648,307.133 488.342,311.960 C 475.397,315.197 473.412,315.476 472.610,314.178" stroke="#1885D1" fill="#1885D1" stroke-width="1"/>
  <path id="10" d="M 617,501.960 C 617,500.838 617.841,498.251 618.869,496.210 C 621.180,491.622 640.559,443.599 661.527,390.500 C 695.856,303.567 744.681,182.491 762.253,140.719 C 766.136,131.489 769.804,124.094 770.406,124.286 C 771.008,124.478 772.348,126.187 773.383,128.084 C 775.257,131.518 775.247,131.675 771.116,164.516 C 762.925,229.626 757.918,268.937 754.495,295 C 752.581,309.575 749.465,333.425 747.571,348 C 745.677,362.575 742.959,383.443 741.531,394.373 C 740.103,405.303 738.387,415.277 737.717,416.537 C 736.564,418.707 733.838,420.872 721,429.818 C 717.975,431.926 710.550,437.176 704.500,441.485 C 698.450,445.794 683.375,456.532 671,465.347 C 658.625,474.163 643.372,485.228 637.104,489.937 C 630.836,494.646 624.086,499.719 622.104,501.209 C 617.738,504.491 617,504.600 617,501.960" stroke="#1683CF" fill="#1683CF" stroke-width="1"/>
</svg>
